<svg id="icons" enable-background="new 0 0 64 64" height="512" viewBox="0 0 64 64" width="512" xmlns="http://www.w3.org/2000/svg"><path d="m37 29.005c0 .55-.45 1-1 1h-34c-.55 0-1-.45-1-1v-16c0-.55.45-1 1-1h34c.55 0 1 .45 1 1z" fill="#8cc152"/><path d="m37 28.005c0 .55-.45 1-1 1h-34c-.55 0-1-.45-1-1v-16c0-.55.45-1 1-1h34c.55 0 1 .45 1 1z" fill="#a0d468"/><path d="m37 27.005c0 .55-.45 1-1 1h-34c-.55 0-1-.45-1-1v-16c0-.55.45-1 1-1h34c.55 0 1 .45 1 1z" fill="#8cc152"/><path d="m37 26.005c0 .55-.45 1-1 1h-34c-.55 0-1-.45-1-1v-16c0-.55.45-1 1-1h34c.55 0 1 .45 1 1z" fill="#a0d468"/><path d="m37 25.005c0 .55-.45 1-1 1h-34c-.55 0-1-.45-1-1v-16c0-.55.45-1 1-1h34c.55 0 1 .45 1 1z" fill="#8cc152"/><path d="m37 24.005c0 .55-.45 1-1 1h-34c-.55 0-1-.45-1-1v-16c0-.55.45-1 1-1h34c.55 0 1 .45 1 1z" fill="#a0d468"/><path d="m37 23.005c0 .55-.45 1-1 1h-34c-.55 0-1-.45-1-1v-16c0-.55.45-1 1-1h34c.55 0 1 .45 1 1z" fill="#8cc152"/><path d="m37 22.005c0 .55-.45 1-1 1h-34c-.55 0-1-.45-1-1v-16c0-.55.45-1 1-1h34c.55 0 1 .45 1 1z" fill="#a0d468"/><path d="m62.93 36.354c-.26-3.479-1.38-6.729-3.14-9.52l-.021.01-8.8-1.28-3.92-7.93.01-.02c-1.619-.41-3.319-.62-5.06-.62-1.72 0-3.4.21-5 .6-.02 0-.04.01-.06.021l.01.02-3.92 7.93-8.8 1.28-.021-.01c-.44.689-.84 1.42-1.19 2.17-.46.96-.85 1.97-1.149 3-.42 1.4-.69 2.85-.8 4.35h.01l6.42 6.261-1.53 8.93-.01.01c2.15 2.53 4.88 4.55 7.98 5.84v-.01l8.06-4.24 8.06 4.24v.01c3.101-1.29 5.83-3.31 7.98-5.84l-.01-.01-1.53-8.93 6.42-6.261h.011z" fill="#e6e9ed"/><circle cx="19" cy="13.995" fill="#8cc152" r="4"/><path d="m1 19.005v3c0 .55.45 1 1 1h3c0-2.21-1.79-4-4-4z" fill="#8cc152"/><path d="m5 5.005h-3c-.55 0-1 .45-1 1v3c2.21 0 4-1.79 4-4z" fill="#8cc152"/><path d="m36 5.005h-3c0 2.21 1.79 4 4 4v-3c0-.55-.45-1-1-1z" fill="#8cc152"/><g fill="#656d78"><path d="m59.79 26.835-.021.01-8.8-1.28-3.92-7.93.01-.02c5.341 1.32 9.881 4.68 12.731 9.22z"/><path d="m21 37.995c0-.55.02-1.101.07-1.641h.01l6.42 6.261-1.53 8.93-.01.01c-3.09-3.66-4.96-8.39-4.96-13.56z"/><path d="m50.06 57.385v.01c-2.479 1.03-5.21 1.601-8.06 1.601s-5.58-.57-8.06-1.601v-.01l8.06-4.24z"/><path d="m36.94 17.615.01.02-3.92 7.93-8.8 1.28-.021-.01c.18-.28.36-.561.55-.83.75-1.08 1.59-2.08 2.53-2.99 2.631-2.59 5.951-4.491 9.651-5.4z"/><path d="m56.5 42.615 6.42-6.261h.01c.051.54.07 1.091.07 1.641 0 5.17-1.87 9.899-4.96 13.56l-.01-.01z"/><path d="m50.5 35.085-3.25 9.99h-10.5l-3.25-9.99 8.5-6.17z"/></g></svg>